<?xml version="1.0" encoding="UTF-8"?>
<svg width="1582px" height="512px" viewBox="0 0 1582 512" version="1.1" xmlns="http://www.w3.org/2000/svg" xmlns:xlink="http://www.w3.org/1999/xlink">
    <title>LokkerLogo2_White_kj6a</title>
    <g id="LokkerLogo2_White_kj6a" stroke="none" stroke-width="1" fill="none" fill-rule="evenodd">
        <polygon id="Path" fill="#FFFFFF" fill-rule="nonzero" points="978.343 173 870.093 257.914984 978.272 343 926.519 343 835.026 275 814 274.999984 814 343 780 343 780 173 814 173 814 240.999984 835.27 241 926.518 173"></polygon>
        <polygon id="Path" fill="#FFFFFF" fill-rule="nonzero" points="759.343 173 651.093 257.914984 759.272 343 707.519 343 616.026 275 595 274.999984 595 343 561 343 561 173 595 173 595 240.999984 616.27 241 707.518 173"></polygon>
        <polygon id="Path" fill="#FFFFFF" fill-rule="nonzero" points="1196 173.047882 1196 207.047882 1030 207.047882 1030 240.999882 1156.00004 240.999652 1156.00004 274.999652 1030 274.999882 1030 308.999882 1196 309 1196 343 996 343 996 173.047882"></polygon>
        <path d="M183,173 L183,309 L339.352731,309.001063 C341.435089,313.794666 344.793961,317.904066 349.000286,320.896177 L349.000286,343 L149,343 L149,173 L183,173 Z" id="Path" fill="#FFFFFF" fill-rule="nonzero"></path>
        <g id="R" transform="translate(1219.000000, 173.000000)" fill="#FFFFFF" fill-rule="nonzero">
            <path d="M148.904236,0 C177.070758,0 199.904236,22.8334778 199.904236,51 C199.904236,77.8688261 179.126272,99.8846986 152.761653,101.856309 L210.708,170 L166.014,170 L108.026,102 L34,102 L34,170 L0,170 L0,0 L148.904236,0 Z M148.904236,34 L34,34 L34,68 L148.904236,68 C158.293077,68 165.904236,60.3888407 165.904236,51 C165.904236,41.719077 158.467041,34.175204 149.227276,34.0030079 L148.904236,34 Z" id="Shape"></path>
        </g>
        <g id="Atom" transform="translate(445.500000, 242.000000) scale(-1, 1) rotate(-270.000000) translate(-445.500000, -242.000000) translate(338.500000, 145.500000)" fill="#FFFFFF" fill-rule="nonzero">
            <path d="M184.704603,34.3970993 C202.723485,51.1076212 214,74.986925 214,101.5 C214,152.034055 173.034055,193 122.5,193 C78.0706712,193 41.0373498,161.333928 32.7381749,119.339923 L68.6317127,119.339425 C73.5908323,134.322007 84.626068,146.53718 98.8182064,153.065728 C98.1325912,155.421388 97.7653061,157.91406 97.7653061,160.492228 C97.7653061,175.122712 109.592951,187 124.204082,187 C138.815212,187 150.642857,175.122712 150.642857,160.492228 C150.642857,157.37631 150.106378,154.385272 149.120787,151.607253 C167.034521,142.072404 179.23,123.210405 179.23,101.5 C179.23,81.9163228 169.306806,64.6503318 154.21428,54.4558896 L158.776335,44.7653813 C160.014459,44.9303753 161.277853,45.015544 162.561224,45.015544 C171.51329,45.015544 179.493342,40.8715213 184.704603,34.3970993 Z M122.5,10 C126.634108,10 130.704181,10.274169 134.693027,10.8053164 C134.318334,12.6486716 134.122449,14.5554432 134.122449,16.507772 C134.122449,25.2142515 138.018099,33.0147121 144.161392,38.2456937 L139.822149,47.463268 C134.361676,45.714271 128.541111,44.77 122.5,44.77 C97.5203206,44.77 76.3114965,60.9149506 68.7391499,83.3392296 L32.8023046,83.3392296 C41.2265044,41.5045794 78.1841078,10 122.5,10 Z" id="Shape"></path>
            <path d="M124.204082,144.053452 C133.321072,144.053452 140.711854,151.413343 140.711854,160.492228 C140.711854,169.571113 133.321072,176.931003 124.204082,176.931003 C115.087091,176.931003 107.69631,169.571113 107.69631,160.492228 C107.69631,151.413343 115.087091,144.053452 124.204082,144.053452 Z" id="Path-Copy-2" transform="translate(124.204082, 160.492228) rotate(-270.000000) translate(-124.204082, -160.492228) "></path>
            <path d="M162.561224,0 C171.64011,0 179,7.39078128 179,16.507772 C179,25.6247628 171.64011,33.015544 162.561224,33.015544 C160.76097,33.015544 159.028305,32.7249457 157.407209,32.1879134 L138.282833,73.4233089 C147.900144,79.1841404 154.341837,89.7356075 154.341837,101.797927 C154.341837,120.031909 139.622056,134.813472 121.464286,134.813472 C103.65365,134.813472 89.1508064,120.591684 88.6027954,102.839835 L32.8105951,102.839427 C32.0558721,111.253452 25.0141257,117.84715 16.4387755,117.84715 C7.35989049,117.84715 -1.8189894e-12,110.456369 -1.8189894e-12,101.339378 C-1.8189894e-12,92.2223875 7.35989049,84.8316062 16.4387755,84.8316062 C25.0141257,84.8316062 32.0558721,91.4253042 32.8105951,99.8393297 L88.6436485,99.8390083 C89.6529974,82.516927 103.961408,68.7823834 121.464286,68.7823834 C126.539029,68.7823834 131.345233,69.9369618 135.636615,71.9988029 L154.658542,30.9864004 C149.570855,28.1801355 146.122449,22.7483532 146.122449,16.507772 C146.122449,7.39078128 153.482339,0 162.561224,0 Z" id="Path"></path>
        </g>
    </g>
</svg>